<?xml version="1.0" encoding="UTF-8"?>
<svg xmlns="http://www.w3.org/2000/svg" width="24" height="24" viewBox="0 0 24 24" fill="none">
  <path d="M19.125 17.725C17.9417 17.725 16.9127 17.3583 16.038 16.625C15.1627 15.8917 14.625 14.9333 14.425 13.75H11.9L11.575 12.25H14.425C14.4917 11.8333 14.6333 11.3833 14.85 10.9C15.0667 10.4167 15.3667 10.025 15.75 9.725H10.325L10 8.225H16.525L15.175 4.55C15.1583 4.48333 15.1293 4.43733 15.088 4.412C15.046 4.38733 14.9917 4.375 14.925 4.375H12.575V2.875H14.925C15.3083 2.875 15.65 2.975 15.95 3.175C16.25 3.375 16.4667 3.65 16.6 4L18.15 8.2H19.125C20.4417 8.2 21.5627 8.65833 22.488 9.575C23.4127 10.4917 23.875 11.6167 23.875 12.95C23.875 14.2833 23.404 15.4123 22.462 16.337C21.5207 17.2623 20.4083 17.725 19.125 17.725ZM19.125 16.25C20.0417 16.25 20.8127 15.9333 21.438 15.3C22.0627 14.6667 22.375 13.9 22.375 13C22.375 12.0833 22.0627 11.3127 21.438 10.688C20.8127 10.0627 20.0417 9.75 19.125 9.75H18.875C18.8083 9.75 18.7417 9.76667 18.675 9.8L19.7 12.5L18.275 13.025L17.3 10.325C16.85 10.625 16.5 11.0123 16.25 11.487C16 11.9623 15.875 12.4667 15.875 13C15.875 13.9 16.1833 14.6667 16.8 15.3C17.4167 15.9333 18.1917 16.25 19.125 16.25Z" fill="black"></path>
  <path d="M4.875 17.45C4.875 17.9 5.03333 18.2833 5.35 18.6C5.66667 18.9167 6.05 19.075 6.5 19.075C6.95 19.075 7.33333 18.9167 7.65 18.6C7.96667 18.2833 8.125 17.9 8.125 17.45C8.125 17 7.96667 16.6167 7.65 16.3C7.33333 15.9833 6.95 15.825 6.5 15.825C6.05 15.825 5.66667 15.9833 5.35 16.3C5.03333 16.6167 4.875 17 4.875 17.45ZM1 17.45C1 18.9833 1.53333 20.2833 2.6 21.35C3.66667 22.4167 4.96667 22.95 6.5 22.95C8.03333 22.95 9.33333 22.4167 10.4 21.35C11.4667 20.2833 12 18.9833 12 17.45C12 16.3833 11.725 15.4167 11.175 14.55C10.625 13.6833 9.9 13.0167 9 12.55L9 3.55L6.5 1.05L2.675 4.9L4.075 6.75L2.65 8.65L4 10.625L4 12.55C3.11667 13.0167 2.39567 13.6833 1.837 14.55C1.279 15.4167 1 16.3833 1 17.45ZM2.5 17.45C2.5 16.4833 2.79167 15.65 3.375 14.95C3.95833 14.25 4.66667 13.7917 5.5 13.575L5.5 10.15L4.5 8.7L5.925 6.75L4.625 5.05L6.5 3.175L7.5 4.175L7.5 13.575C8.33333 13.7917 9.04167 14.25 9.625 14.95C10.2083 15.65 10.5 16.4833 10.5 17.45C10.5 18.55 10.1083 19.4917 9.325 20.275C8.54167 21.0583 7.6 21.45 6.5 21.45C5.4 21.45 4.45833 21.0583 3.675 20.275C2.89167 19.4917 2.5 18.55 2.5 17.45Z" fill="black"></path>
</svg>
