<?xml version="1.0" encoding="UTF-8"?>
<svg xmlns="http://www.w3.org/2000/svg" height="24" width="24">
  <path d="m8.575 18.55 2.125-3.6H9.425v-2.775L7.3 15.8h1.275ZM6 10.25h6V5.3q0-.1-.1-.2t-.2-.1H6.3q-.1 0-.2.1t-.1.2ZM6 19h6v-7.25H6Zm-1.5 1.5V5.3q0-.75.525-1.275Q5.55 3.5 6.3 3.5h5.4q.75 0 1.275.525.525.525.525 1.275v6.5h1.125q.675 0 1.163.487.487.488.487 1.163v4.625q0 .475.388.85.387.375.887.375.525 0 .9-.375t.375-.85V8.95h-.3q-.375 0-.637-.262-.263-.263-.263-.638v-1.8h.45v-1.3h.875v1.3h.925v-1.3h.9v1.3h.45v1.8q0 .375-.262.638-.263.262-.638.262h-.3v9.125q0 .975-.725 1.7t-1.75.725q-1 0-1.738-.725-.737-.725-.737-1.7V13.45q0-.2-.125-.325T14.625 13H13.5v7.5ZM12 19H6h6Z"></path>
</svg>
