<?xml version="1.0" encoding="UTF-8"?>
<svg xmlns="http://www.w3.org/2000/svg" width="24" height="24" viewBox="0 0 24 24" fill="none">
  <path fill-rule="evenodd" clip-rule="evenodd" d="M16.8187 18.425L19.95 21.5625L21.025 20.4875L3.27501 2.73749L2.20001 3.81249L4.14326 5.75573C4.04775 6.02408 4 6.31384 4 6.625V8.425C3.33333 8.425 2.75 8.65833 2.25 9.125C1.75 9.59167 1.5 10.1917 1.5 10.925V15.925C1.5 16.625 1.74167 17.2167 2.225 17.7C2.70833 18.1833 3.3 18.425 4 18.425H4.275V19.425C4.275 19.6417 4.346 19.8207 4.488 19.962C4.62933 20.104 4.80833 20.175 5.025 20.175C5.24167 20.175 5.42067 20.104 5.562 19.962C5.704 19.8207 5.775 19.6417 5.775 19.425V18.425H16.8187ZM15.3217 16.925L13.0761 14.675H5V10.925C5 10.6417 4.90433 10.404 4.713 10.212C4.521 10.0207 4.28333 9.925 4 9.925C3.71667 9.925 3.47933 10.0207 3.288 10.212C3.096 10.404 3 10.6417 3 10.925V15.925C3 16.2083 3.096 16.446 3.288 16.638C3.47933 16.8293 3.71667 16.925 4 16.925H15.3217ZM11.5791 13.175L7.32501 8.91249L6.25001 7.86249L5.5 7.11248V8.975C5.8 9.19167 6.04167 9.47067 6.225 9.812C6.40833 10.154 6.5 10.525 6.5 10.925V13.175H11.5791Z" fill="black"></path>
  <path d="M21.386 18.0214L20.2615 16.8947C20.4327 16.8528 20.5828 16.7672 20.712 16.638C20.904 16.446 21 16.2083 21 15.925V10.925C21 10.6417 20.904 10.404 20.712 10.212C20.5207 10.0207 20.2833 9.925 20 9.925C19.7167 9.925 19.4793 10.0207 19.288 10.212C19.096 10.404 19 10.6417 19 10.925V14.675H18.0462L16.5492 13.175H17.5V10.925C17.5 10.525 17.5917 10.154 17.775 9.812C17.9583 9.47067 18.2 9.19167 18.5 8.975V6.625C18.5 6.34167 18.404 6.104 18.212 5.912C18.0207 5.72067 17.7833 5.625 17.5 5.625H8.99348L8.73751 5.37499L7.48752 4.125H17.5C18.2 4.125 18.7917 4.36667 19.275 4.85C19.7583 5.33333 20 5.925 20 6.625V8.425C20.6833 8.425 21.271 8.66233 21.763 9.137C22.2543 9.61233 22.5 10.2083 22.5 10.925V15.925C22.5 16.625 22.2583 17.2167 21.775 17.7C21.6523 17.8227 21.5226 17.9298 21.386 18.0214Z" fill="black"></path>
</svg>
